HIERARCHY
ROOT root
{
  OFFSET 0.0000 0.0000 0.0000
  CHANNELS 6 Xposition Yposition Zposition Zrotation Xrotation Yrotation
  JOINT lowerback
  {
    OFFSET 0.0000 0.0000 0.0000
    CHANNELS 3 Zrotation Xrotation Yrotation
    JOINT upperback
    {
      OFFSET -0.2975 11.0962 -0.4289
      CHANNELS 3 Zrotation Xrotation Yrotation
      JOINT thorax
      {
        OFFSET -0.0009 11.0405 -0.3169
        CHANNELS 3 Zrotation Xrotation Yrotation
        JOINT neck
        {
          OFFSET 0.1944 11.1642 0.0841
          CHANNELS 3 Zrotation Xrotation Yrotation
          JOINT head
          {
            OFFSET 1.6277 15.5530 -0.6089
            CHANNELS 3 Zrotation Xrotation Yrotation
            End Site
            {
                OFFSET -0.0000 -0.0000 0.0000
            }
          }
        }
      }
      JOINT lshoulderjoint
      {
        OFFSET -0.0009 11.0405 -0.3169
        CHANNELS 3 Zrotation Xrotation Yrotation
        JOINT lhumerus
        {
          OFFSET 14.1669 18.7170 0.1105
          CHANNELS 3 Zrotation Xrotation Yrotation
          JOINT lradius
          {
            OFFSET 29.5186 0.0000 0.0000
            CHANNELS 3 Zrotation Xrotation Yrotation
            JOINT lhand
            {
              OFFSET 23.9354 0.0000 0.0000
              CHANNELS 3 Zrotation Xrotation Yrotation
              End Site
              {
                  OFFSET 0.0000 0.0000 0.0000
              }
            }
          }
        }
      }
      JOINT rshoulderjoint
      {
        OFFSET -0.0009 11.0405 -0.3169
        CHANNELS 3 Zrotation Xrotation Yrotation
        JOINT rhumerus
        {
          OFFSET -14.2042 18.2168 -0.2511
          CHANNELS 3 Zrotation Xrotation Yrotation
          JOINT rradius
          {
            OFFSET -29.7619 0.0000 0.0000
            CHANNELS 3 Zrotation Xrotation Yrotation
            JOINT rhand
            {
              OFFSET -25.1658 0.0000 0.0000
              CHANNELS 3 Zrotation Xrotation Yrotation
              End Site
              {
                  OFFSET 0.0000 0.0000 0.0000
              }
            }
          }
        }
      }
    }
  }
  JOINT rfemur
  {
    OFFSET -7.7032 -9.8555 2.1513
    CHANNELS 3 Zrotation Xrotation Yrotation
    JOINT rtibia
    {
      OFFSET -7.1353 -40.4666 0.0000
      CHANNELS 3 Zrotation Xrotation Yrotation
      JOINT rfoot
      {
        OFFSET -6.6645 -37.7961 0.0000
        CHANNELS 3 Zrotation Xrotation Yrotation
        JOINT rtoes
        {
          OFFSET -3.4134 -6.6508 11.8768
          CHANNELS 3 Zrotation Xrotation Yrotation
          End Site
          {
              OFFSET 0.0000 0.0000 0.0000
          }
        }
      }
    }
  }
  JOINT lfemur
  {
    OFFSET 8.5590 -9.8555 2.1513
    CHANNELS 3 Zrotation Xrotation Yrotation
    JOINT ltibia
    {
      OFFSET 7.2751 -41.2593 0.0000
      CHANNELS 3 Zrotation Xrotation Yrotation
      JOINT lfoot
      {
        OFFSET 6.5686 -37.2525 0.0000
        CHANNELS 3 Zrotation Xrotation Yrotation
        JOINT ltoes
        {
          OFFSET 3.2326 -4.1860 10.4122
          CHANNELS 3 Zrotation Xrotation Yrotation
          End Site
          {
              OFFSET 0.0000 0.0000 0.0000
          }
        }
      }
    }
  }
}
MOTION
Frames:	26
Frame Time:	0.008333
20.0579 96.9808 -184.5569 3.28 9.12 2.29 0.00 0.00 0.00 0.00 0.00 0.00 0.00 0.00 0.00 0.00 0.00 0.00 0.00 0.00 0.00 -0.00 0.00 0.00 0.00 0.00 -0.00 0.00 0.00 -0.00 0.00 0.00 0.00 0.00 0.00 -0.00 0.00 0.00 0.00 0.00 0.00 0.00 -0.00 0.00 0.00 2.39 -17.98 -27.22 1.01 24.64 -4.64 -0.38 3.00 23.87 0.00 0.00 -0.00 -13.76 -16.23 5.73 -0.88 23.13 4.32 -0.14 1.01 -16.68 -0.00 0.00 0.00 
20.0572 96.9531 -184.5561 3.29 9.13 2.27 0.00 0.00 0.00 0.00 0.00 0.00 0.00 0.00 0.00 0.00 0.00 0.00 0.00 0.00 0.00 0.00 0.00 0.00 0.00 0.00 0.00 0.00 0.00 0.00 0.00 0.00 0.00 0.00 0.00 0.00 0.00 0.00 0.00 0.00 0.00 0.00 0.00 0.00 0.00 2.34 -18.07 -27.19 1.03 24.84 -4.68 -0.32 2.85 23.88 0.00 0.00 0.00 -13.77 -16.33 5.74 -0.90 23.31 4.36 -0.18 0.83 -16.63 0.00 0.00 0.00 
20.0365 96.9239 -184.5490 3.34 9.13 2.18 0.00 0.00 0.00 0.00 0.00 0.00 0.00 0.00 0.00 0.00 0.00 0.00 0.00 0.00 0.00 0.00 0.00 0.00 0.00 0.00 0.00 0.00 0.00 0.00 0.00 0.00 0.00 0.00 0.00 0.00 0.00 0.00 0.00 0.00 0.00 0.00 0.00 0.00 0.00 2.29 -18.14 -27.11 1.04 24.97 -4.71 -0.29 2.77 23.84 0.00 -0.00 0.00 -13.78 -16.36 5.82 -0.91 23.40 4.38 -0.25 0.62 -16.63 -0.00 -0.00 -0.00 
20.0257 96.9043 -184.5452 3.43 9.09 2.14 0.00 0.00 0.00 0.00 0.00 0.00 0.00 0.00 0.00 0.00 0.00 0.00 0.00 0.00 0.00 0.00 0.00 0.00 0.00 0.00 0.00 0.00 0.00 0.00 0.00 0.00 0.00 0.00 0.00 0.00 0.00 0.00 0.00 0.00 0.00 0.00 0.00 0.00 0.00 2.19 -18.11 -27.08 1.05 25.01 -4.72 -0.26 2.70 23.83 0.00 -0.00 0.00 -13.84 -16.38 5.85 -0.92 23.59 4.42 -0.33 0.33 -16.66 -0.00 -0.01 -0.00 
20.0172 96.8672 -184.5310 3.48 9.05 2.06 0.00 0.00 0.00 0.00 0.00 0.00 0.00 0.00 0.00 0.00 0.00 0.00 0.00 0.00 0.00 0.00 0.00 0.00 0.00 0.00 0.00 0.00 0.00 0.00 0.00 0.00 0.00 0.00 0.00 0.00 0.00 0.00 0.00 0.00 0.00 0.00 0.00 0.00 0.00 2.13 -18.07 -27.01 1.05 25.06 -4.73 -0.22 2.63 23.80 0.00 0.01 -0.00 -13.85 -16.39 5.93 -0.94 23.77 4.45 -0.42 0.05 -16.69 -0.00 -0.03 -0.00 
19.9807 96.8157 -184.5198 3.53 9.09 1.95 0.00 0.00 0.00 0.00 0.00 0.00 0.00 0.00 0.00 0.00 0.00 0.00 0.00 0.00 0.00 0.00 0.00 0.00 0.00 0.00 0.00 0.00 0.00 0.00 0.00 0.00 0.00 0.00 0.00 0.00 0.00 0.00 0.00 0.00 0.00 0.00 0.00 0.00 0.00 2.11 -18.09 -26.89 1.05 25.07 -4.73 -0.19 2.56 23.81 0.00 0.02 -0.00 -13.85 -16.49 6.02 -0.95 23.90 4.48 -0.51 -0.24 -16.82 -0.00 0.01 0.00 
19.9530 96.7852 -184.4990 3.50 9.10 1.82 0.00 0.00 0.00 0.00 0.00 0.00 0.00 0.00 0.00 0.00 0.00 0.00 0.00 0.00 0.00 0.00 0.00 0.00 0.00 0.00 0.00 0.00 0.00 0.00 0.00 0.00 0.00 0.00 0.00 0.00 0.00 0.00 0.00 0.00 0.00 0.00 0.00 0.00 0.00 2.22 -18.07 -26.76 1.05 25.03 -4.72 -0.18 2.52 23.84 0.00 -0.03 0.01 -13.73 -16.57 6.14 -0.96 24.03 4.51 -0.58 -0.46 -16.96 -0.00 -0.00 -0.00 
19.9403 96.7748 -184.4759 3.44 9.01 1.78 0.00 0.00 0.00 0.00 0.00 0.00 0.00 0.00 0.00 0.00 0.00 0.00 0.00 0.00 0.00 0.00 0.00 0.00 0.00 0.00 0.00 0.00 0.00 0.00 0.00 0.00 0.00 0.00 0.00 0.00 0.00 0.00 0.00 0.00 0.00 0.00 0.00 0.00 0.00 2.32 -17.91 -26.71 1.04 24.98 -4.71 -0.14 2.43 23.89 0.00 0.00 -0.00 -13.62 -16.53 6.21 -0.97 24.17 4.54 -0.67 -0.75 -16.99 -0.00 0.04 0.01 
19.9469 96.7712 -184.4457 3.46 8.87 1.77 0.00 0.00 0.00 0.00 0.00 0.00 0.00 0.00 0.00 0.00 0.00 0.00 0.00 0.00 0.00 0.00 0.00 0.00 0.00 0.00 0.00 0.00 0.00 0.00 0.00 0.00 0.00 0.00 0.00 0.00 0.00 0.00 0.00 0.00 0.00 0.00 0.00 0.00 0.00 2.33 -17.72 -26.71 1.04 24.93 -4.70 -0.11 2.38 23.91 0.00 0.00 -0.00 -13.62 -16.42 6.26 -0.98 24.29 4.56 -0.74 -0.99 -17.07 -0.00 0.07 0.01 
19.9347 96.7605 -184.4078 3.37 8.74 1.75 0.00 0.00 0.00 0.00 0.00 0.00 0.00 0.00 0.00 0.00 0.00 0.00 0.00 0.00 0.00 0.00 0.00 0.00 0.00 0.00 0.00 0.00 0.00 0.00 0.00 0.00 0.00 0.00 0.00 0.00 0.00 0.00 0.00 0.00 0.00 0.00 0.00 0.00 0.00 2.48 -17.54 -26.68 1.03 24.87 -4.69 -0.08 2.30 23.92 0.00 0.01 -0.00 -13.49 -16.32 6.32 -0.99 24.38 4.58 -0.78 -1.09 -17.12 -0.00 0.01 0.00 
19.9068 96.7519 -184.3717 3.28 8.68 1.73 0.00 0.00 0.00 0.00 0.00 0.00 0.00 0.00 0.00 0.00 0.00 0.00 0.00 0.00 0.00 0.00 0.00 0.00 0.00 0.00 0.00 0.00 0.00 0.00 0.00 0.00 0.00 0.00 0.00 0.00 0.00 0.00 0.00 0.00 0.00 0.00 0.00 0.00 0.00 2.63 -17.43 -26.65 1.03 24.83 -4.68 -0.06 2.26 23.93 0.00 -0.03 0.00 -13.36 -16.28 6.37 -1.00 24.43 4.59 -0.80 -1.17 -17.08 -0.00 -0.03 -0.01 
19.8980 96.7514 -184.3288 3.23 8.65 1.74 0.00 0.00 0.00 0.00 0.00 0.00 0.00 0.00 0.00 0.00 0.00 0.00 0.00 0.00 0.00 0.00 0.00 0.00 0.00 0.00 0.00 0.00 0.00 0.00 0.00 0.00 0.00 0.00 0.00 0.00 0.00 0.00 0.00 0.00 0.00 0.00 0.00 0.00 0.00 2.69 -17.36 -26.66 1.03 24.82 -4.68 -0.02 2.18 23.92 0.00 -0.02 0.00 -13.28 -16.25 6.37 -1.00 24.50 4.61 -0.85 -1.36 -17.09 -0.00 0.03 0.01 
19.9179 96.7506 -184.2800 3.23 8.62 1.77 0.00 0.00 0.00 0.00 0.00 0.00 0.00 0.00 0.00 0.00 0.00 0.00 0.00 0.00 0.00 0.00 0.00 0.00 0.00 0.00 0.00 0.00 0.00 0.00 0.00 0.00 0.00 0.00 0.00 0.00 0.00 0.00 0.00 0.00 0.00 0.00 0.00 0.00 0.00 2.67 -17.28 -26.69 1.03 24.82 -4.68 0.04 2.03 23.91 0.00 0.01 -0.00 -13.28 -16.24 6.35 -1.01 24.60 4.63 -0.89 -1.47 -17.10 -0.00 -0.00 -0.00 
19.9202 96.7473 -184.2267 3.23 8.63 1.70 0.00 0.00 0.00 0.00 0.00 0.00 0.00 0.00 0.00 0.00 0.00 0.00 0.00 0.00 0.00 0.00 0.00 0.00 0.00 0.00 0.00 0.00 0.00 0.00 0.00 0.00 0.00 0.00 0.00 0.00 0.00 0.00 0.00 0.00 0.00 0.00 0.00 0.00 0.00 2.67 -17.26 -26.62 1.03 24.86 -4.69 0.09 1.93 23.96 0.00 0.01 -0.00 -13.27 -16.28 6.41 -1.02 24.70 4.65 -0.93 -1.60 -17.11 -0.00 0.01 0.00 
19.8887 96.7329 -184.1515 3.16 8.68 1.62 0.00 0.00 0.00 0.00 0.00 0.00 0.00 0.00 0.00 0.00 0.00 0.00 0.00 0.00 0.00 0.00 0.00 0.00 0.00 0.00 0.00 0.00 0.00 0.00 0.00 0.00 0.00 0.00 0.00 0.00 0.00 0.00 0.00 0.00 0.00 0.00 0.00 0.00 0.00 2.78 -17.30 -26.52 1.04 24.90 -4.70 0.14 1.81 24.08 0.00 0.03 -0.00 -13.15 -16.34 6.49 -1.03 24.77 4.67 -0.98 -1.78 -17.15 -0.00 0.10 0.02 
19.8670 96.7026 -184.0748 3.13 8.78 1.63 0.00 0.00 0.00 0.00 0.00 0.00 0.00 0.00 0.00 0.00 0.00 0.00 0.00 0.00 0.00 0.00 0.00 0.00 0.00 0.00 0.00 0.00 0.00 0.00 0.00 0.00 0.00 0.00 0.00 0.00 0.00 0.00 0.00 0.00 0.00 0.00 0.00 0.00 0.00 2.84 -17.35 -26.52 1.04 24.93 -4.70 0.19 1.71 24.19 0.00 0.03 -0.00 -13.11 -16.43 6.47 -1.03 24.84 4.68 -0.98 -1.76 -17.20 -0.00 0.03 0.00 
19.8745 96.6828 -184.0090 3.21 8.75 1.68 0.00 0.00 0.00 0.00 0.00 0.00 0.00 0.00 0.00 0.00 0.00 0.00 0.00 0.00 0.00 0.00 0.00 0.00 0.00 0.00 0.00 0.00 0.00 0.00 0.00 0.00 0.00 0.00 0.00 0.00 0.00 0.00 0.00 0.00 0.00 0.00 0.00 0.00 0.00 2.73 -17.25 -26.59 1.04 24.94 -4.70 0.22 1.65 24.22 0.00 -0.00 0.00 -13.20 -16.38 6.41 -1.04 24.93 4.70 -0.97 -1.73 -17.26 -0.00 -0.08 -0.01 
19.8937 96.6836 -183.9379 3.31 8.66 1.67 0.00 0.00 0.00 0.00 0.00 0.00 0.00 0.00 0.00 0.00 0.00 0.00 0.00 0.00 0.00 0.00 0.00 0.00 0.00 0.00 0.00 0.00 0.00 0.00 0.00 0.00 0.00 0.00 0.00 0.00 0.00 0.00 0.00 0.00 0.00 0.00 0.00 0.00 0.00 2.60 -17.09 -26.61 1.04 24.93 -4.70 0.26 1.58 24.28 0.00 0.02 -0.00 -13.30 -16.27 6.43 -1.05 25.04 4.73 -1.01 -1.86 -17.21 -0.00 -0.09 -0.02 
19.9066 96.6660 -183.8777 3.36 8.77 1.63 0.00 0.00 0.00 0.00 0.00 0.00 0.00 0.00 0.00 0.00 0.00 0.00 0.00 0.00 0.00 0.00 0.00 0.00 0.00 0.00 0.00 0.00 0.00 0.00 0.00 0.00 0.00 0.00 0.00 0.00 0.00 0.00 0.00 0.00 0.00 0.00 0.00 0.00 0.00 2.53 -17.16 -26.57 1.04 24.92 -4.70 0.27 1.55 24.29 0.00 0.02 -0.00 -13.35 -16.41 6.43 -1.06 25.16 4.75 -1.08 -2.10 -17.18 -0.00 -0.02 -0.00 
19.9024 96.6272 -183.8211 3.27 8.90 1.55 0.00 0.00 0.00 0.00 0.00 0.00 0.00 0.00 0.00 0.00 0.00 0.00 0.00 0.00 0.00 0.00 0.00 0.00 0.00 0.00 0.00 0.00 0.00 0.00 0.00 0.00 0.00 0.00 0.00 0.00 0.00 0.00 0.00 0.00 0.00 0.00 0.00 0.00 0.00 2.67 -17.26 -26.47 1.04 24.91 -4.70 0.27 1.53 24.21 0.00 0.01 -0.00 -13.22 -16.57 6.50 -1.07 25.28 4.78 -1.15 -2.32 -17.28 -0.00 0.01 0.00 
19.8972 96.5919 -183.7680 3.19 8.99 1.54 0.00 0.00 0.00 0.00 0.00 0.00 0.00 0.00 0.00 0.00 0.00 0.00 0.00 0.00 0.00 0.00 0.00 0.00 0.00 0.00 0.00 0.00 0.00 0.00 0.00 0.00 0.00 0.00 0.00 0.00 0.00 0.00 0.00 0.00 0.00 0.00 0.00 0.00 0.00 2.78 -17.32 -26.45 1.04 24.89 -4.69 0.26 1.56 24.20 0.00 -0.01 0.00 -13.13 -16.70 6.49 -1.08 25.39 4.80 -1.21 -2.53 -17.26 -0.00 0.04 0.01 
19.9180 96.5662 -183.7080 3.18 9.06 1.62 0.00 0.00 0.00 0.00 0.00 0.00 0.00 0.00 0.00 0.00 0.00 0.00 0.00 0.00 0.00 0.00 0.00 0.00 0.00 0.00 0.00 0.00 0.00 0.00 0.00 0.00 0.00 0.00 0.00 0.00 0.00 0.00 0.00 0.00 0.00 0.00 0.00 0.00 0.00 2.76 -17.36 -26.53 1.03 24.88 -4.69 0.26 1.56 24.19 0.00 0.00 -0.00 -13.16 -16.80 6.38 -1.09 25.49 4.82 -1.25 -2.69 -17.24 -0.00 0.09 0.02 
19.9248 96.5327 -183.6191 3.19 9.15 1.58 0.00 0.00 0.00 0.00 0.00 0.00 0.00 0.00 0.00 0.00 0.00 0.00 0.00 0.00 0.00 0.00 0.00 0.00 0.00 0.00 0.00 0.00 0.00 0.00 0.00 0.00 0.00 0.00 0.00 0.00 0.00 0.00 0.00 0.00 0.00 0.00 0.00 0.00 0.00 2.74 -17.40 -26.48 1.03 24.88 -4.69 0.26 1.55 24.18 0.00 -0.01 0.00 -13.16 -16.85 6.41 -1.10 25.56 4.84 -1.26 -2.72 -17.23 -0.00 -0.02 -0.00 
19.9133 96.5131 -183.5346 3.16 9.18 1.55 0.00 0.00 0.00 0.00 0.00 0.00 0.00 0.00 0.00 0.00 0.00 0.00 0.00 0.00 0.00 0.00 0.00 0.00 0.00 0.00 0.00 0.00 0.00 0.00 0.00 0.00 0.00 0.00 0.00 0.00 0.00 0.00 0.00 0.00 0.00 0.00 0.00 0.00 0.00 2.79 -17.37 -26.44 1.04 24.89 -4.69 0.29 1.49 24.14 0.00 -0.03 0.01 -13.11 -16.84 6.45 -1.10 25.61 4.85 -1.28 -2.75 -17.32 -0.00 -0.11 -0.02 
19.9201 96.5116 -183.4342 3.21 9.22 1.48 0.00 0.00 0.00 0.00 0.00 0.00 0.00 0.00 0.00 0.00 0.00 0.00 0.00 0.00 0.00 0.00 0.00 0.00 0.00 0.00 0.00 0.00 0.00 0.00 0.00 0.00 0.00 0.00 0.00 0.00 0.00 0.00 0.00 0.00 0.00 0.00 0.00 0.00 0.00 2.74 -17.37 -26.39 1.04 24.93 -4.70 0.33 1.39 24.18 0.00 0.00 -0.00 -13.15 -16.83 6.51 -1.11 25.65 4.86 -1.38 -3.06 -17.39 -0.00 0.05 0.01 
19.9098 96.5121 -183.3268 3.35 9.28 1.34 0.00 0.00 0.00 0.00 0.00 0.00 0.00 0.00 0.00 0.00 0.00 0.00 0.00 0.00 0.00 0.00 0.00 0.00 0.00 0.00 0.00 0.00 0.00 0.00 0.00 0.00 0.00 0.00 0.00 0.00 0.00 0.00 0.00 0.00 0.00 0.00 0.00 0.00 0.00 2.61 -17.39 -26.27 1.04 24.98 -4.71 0.37 1.32 24.22 0.00 0.01 -0.00 -13.25 -16.82 6.62 -1.11 25.67 4.86 -1.43 -3.22 -17.45 -0.00 0.08 0.01 
